PathFileType	4	(X/Y/Z)	C:/Users/opensim2020/Desktop/walking_exp_matlab/subject06_walking12_straigt_01.trc																																																																																																																																														
DataRate	CameraRate	NumFrames	NumMarkers	Units	OrigDataRate	OrigDataStartFrame	OrigNumFrames																																																																																																																																										
100	100	4	48	mm	100	917	196																																																																																																																																										
Frame#	Time	LFHD			RFHD			LBHD			RBHD			C7			T10			CLAV			STRN			RBAK			LSHO			LUPA			LELB			LFRM			LWRA			LWRB			LFIN			RSHO			RUPA			RELB			RFRM			RWRA			RWRB			RFIN			LASI			RASI			LPSI			RPSI			LTHI			LKNE			LTIB			LANK			LHEE			LTOE			RTHI			RKNE			RTIB			RANK			RHEE			RTOE			*39			*40			*41			*42			*43			*44			*45			*46			*47		
		X1	Y1	Z1	X2	Y2	Z2	X3	Y3	Z3	X4	Y4	Z4	X5	Y5	Z5	X6	Y6	Z6	X7	Y7	Z7	X8	Y8	Z8	X9	Y9	Z9	X10	Y10	Z10	X11	Y11	Z11	X12	Y12	Z12	X13	Y13	Z13	X14	Y14	Z14	X15	Y15	Z15	X16	Y16	Z16	X17	Y17	Z17	X18	Y18	Z18	X19	Y19	Z19	X20	Y20	Z20	X21	Y21	Z21	X22	Y22	Z22	X23	Y23	Z23	X24	Y24	Z24	X25	Y25	Z25	X26	Y26	Z26	X27	Y27	Z27	X28	Y28	Z28	X29	Y29	Z29	X30	Y30	Z30	X31	Y31	Z31	X32	Y32	Z32	X33	Y33	Z33	X34	Y34	Z34	X35	Y35	Z35	X36	Y36	Z36	X37	Y37	Z37	X38	Y38	Z38	X39	Y39	Z39	X40	Y40	Z40	X41	Y41	Z41	X42	Y42	Z42	X43	Y43	Z43	X44	Y44	Z44	X45	Y45	Z45	X46	Y46	Z46	X47	Y47	Z47	X48	Y48	Z48
																																																																																																																																																	
123	1.22	350.03329	1660.9939	-1100.8053	340.98166	1648.98462	-969.48291	213.05934	1620.21326	-1110.55151	206.02127	1612.54285	-981.59937	195.91241	1455.80737	-1053.40784	162.57436	1125.17615	-1043.36218	304.46069	1376.10034	-1045.67566	344.45953	1201.46338	-1050.08582	117.76782	1284.21082	-978.72437	257.20145	1409.36816	-1209.44885	281.81354	1211.45581	-1289.48816	298.3508	1100.89209	-1307.74011	364.46982	965.47852	-1328.08447	446.90543	870.25751	-1276.84375	398.66983	851.13531	-1324.50671	461.60675	786.77362	-1319.83447	249.88953	1411.00159	-887.71765	191.7191	1217.07947	-802.40326	190.67877	1095.2334	-787.80426	184.58076	975.84546	-765.61548	216.71651	825.41217	-785.15515	161.60033	839.7439	-749.78278	180.87396	757.00079	-742.83734	342.93906	964.54358	-1144.84424	335.53149	972.30908	-924.80347	185.63681	993.78821	-1120.46997	185.43686	993.19836	-951.80927	267.46194	650.39075	-1198.02441	254.33653	486.63669	-1173.83203	200.88319	235.43027	-1156.89282	180.08687	65.41219	-1110.19751	138.36902	53.72469	-1065.82617	325.05933	35.26317	-1105.21399	361.84317	646.2959	-869.84863	408.71283	529.79907	-893.45734	275.88925	308.37112	-900.63361	177.54036	151.50909	-944.06952	135.46416	142.04631	-993.37927	296.44077	56.52439	-925.5304	250.58005	1708.7384	-1047.32251	NaN	NaN	NaN	NaN	NaN	NaN	NaN	NaN	NaN	NaN	NaN	NaN	NaN	NaN	NaN	NaN	NaN	NaN	NaN	NaN	NaN	NaN	NaN	NaN
124	1.23	361.31021	1660.0979	-1100.15967	351.62372	1647.92224	-968.88367	224.16953	1619.9646	-1110.61316	216.51385	1612.11865	-981.74371	206.242	1455.2196	-1053.65991	172.64722	1124.44678	-1043.90344	314.69022	1375.40649	-1045.70667	354.53705	1200.79895	-1050.2843	127.69859	1283.52734	-979.46912	267.56454	1408.95679	-1209.64819	294.18396	1211.44189	-1289.7196	313.0946	1101.25305	-1308.20776	382.18936	967.37946	-1328.05371	467.23267	874.45679	-1277.01367	419.21768	853.82684	-1324.30359	483.84677	791.14697	-1319.7666	259.48785	1410.20093	-887.90509	201.03214	1216.36304	-802.61444	199.74115	1094.50513	-788.32831	193.10825	975.16107	-765.88531	225.18286	824.7428	-785.25818	169.82501	839.07574	-750.33972	189.25391	756.41907	-743.10095	352.94315	963.70795	-1145.8324	345.67236	971.8078	-925.44702	195.19711	993.20813	-1120.83594	195.52452	992.66418	-952.10931	274.5899	649.75165	-1198.12744	259.32034	485.97214	-1174.01807	202.98619	235.33589	-1157.14856	180.47372	65.62898	-1110.08911	138.61052	54.14523	-1065.66956	325.18814	34.88473	-1105.06653	375.53186	647.82178	-871.00714	423.65475	531.86615	-894.36029	299.88144	304.36115	-900.89203	209.4659	142.52278	-943.98053	167.66	130.91425	-993.12372	333.41119	54.35616	-926.15179	261.86682	1708.2002	-1047.1134	NaN	NaN	NaN	NaN	NaN	NaN	NaN	NaN	NaN	NaN	NaN	NaN	NaN	NaN	NaN	NaN	NaN	NaN	NaN	NaN	NaN	NaN	NaN	NaN
125	1.24	372.58875	1659.13306	-1099.48181	362.34421	1646.82935	-968.29736	235.31728	1619.58496	-1110.64771	227.0688	1611.61401	-981.76947	216.59425	1454.5824	-1053.87988	182.65985	1123.70361	-1044.35583	324.89267	1374.67468	-1045.71887	364.57162	1200.02515	-1050.48376	137.82895	1282.53589	-980.21063	277.98788	1408.46643	-1209.73828	306.45908	1211.33484	-1289.93652	327.64783	1101.54871	-1308.52612	399.74252	969.14862	-1328.10205	487.2204	878.65515	-1276.96948	439.51846	856.54364	-1323.89063	505.82996	795.68115	-1319.479	268.91638	1409.31299	-888.09247	209.8197	1215.55957	-803.24738	208.17111	1093.78625	-788.48798	201.70805	974.40387	-766.21545	234.01035	824.02057	-785.23724	178.37531	838.34143	-750.59692	197.86406	755.68225	-743.30481	362.02621	962.57794	-1146.2384	356.08594	971.22626	-926.16656	204.73941	992.54028	-1121.09485	205.71608	992.00482	-952.35486	281.76843	648.99487	-1198.04907	264.4649	485.41833	-1174.30176	205.37224	235.3661	-1156.94556	180.81813	65.8834	-1109.97412	138.6033	54.71008	-1065.57312	325.42233	34.70369	-1105.02979	388.81888	649.19562	-872.12476	437.99588	533.66949	-894.70941	323.61948	300.34372	-901.08813	241.81593	133.79103	-943.92444	200.42477	120.16235	-992.94312	370.43216	52.49836	-926.96979	273.11465	1707.55396	-1046.82385	NaN	NaN	NaN	NaN	NaN	NaN	NaN	NaN	NaN	NaN	NaN	NaN	NaN	NaN	NaN	NaN	NaN	NaN	NaN	NaN	NaN	NaN	NaN	NaN
126	1.25	383.8988	1658.14404	-1098.75525	372.9931	1645.71021	-967.63129	246.51482	1619.08728	-1110.58899	237.69635	1610.97656	-981.79291	227.07246	1453.90088	-1054.02405	192.60678	1122.96204	-1044.75024	335.19141	1373.80823	-1045.71021	374.60474	1199.12012	-1050.69421	147.74922	1281.73779	-980.75409	288.44724	1407.83386	-1209.78955	318.89282	1211.2489	-1290.28076	342.0899	1101.75562	-1308.71924	417.18494	971	-1328.03088	507.01923	882.96698	-1276.6051	459.51846	859.26678	-1323.31885	527.13568	799.92572	-1319.0155	278.85349	1408.21448	-888.13214	219.33272	1214.50732	-803.48236	217.38872	1092.84155	-789.00244	210.44801	973.56604	-766.46045	242.9231	823.19025	-785.16089	186.94838	837.45947	-750.97705	206.44505	754.86407	-743.29242	371.84042	961.60205	-1147.30786	366.33124	970.48572	-926.70374	214.2874	991.76678	-1121.17468	215.80063	991.31659	-952.45624	288.95544	648.23615	-1197.93982	269.76331	484.89514	-1174.35925	207.62325	235.42108	-1156.86816	181.20874	66.13834	-1109.86047	138.83521	55.22828	-1065.55542	325.6889	34.73314	-1105.12732	401.60773	650.44501	-873.20294	451.2612	535.013	-895.43073	347.03479	296.39984	-901.21442	274.28168	125.47084	-943.84705	233.67261	109.71738	-992.8385	407.33481	51.17218	-928.04956	284.32285	1706.83557	-1046.51184	NaN	NaN	NaN	NaN	NaN	NaN	NaN	NaN	NaN	NaN	NaN	NaN	NaN	NaN	NaN	NaN	NaN	NaN	NaN	NaN	NaN	NaN	NaN	NaN
